<svg id="Calque_1" data-name="Calque 1" xmlns="http://www.w3.org/2000/svg" viewBox="0 0 139.28 61.82"><defs><style>.cls-1{fill:#fff;}</style></defs><title>logo truffe</title><path class="cls-1" d="M33.82,24.09l0.36,12.76A8.26,8.26,0,0,1,34.11,38v0.16q0.05,1,.16,2.91,0.26,4.21.26,6.34v1.13h2.53a2.2,2.2,0,0,1,.68.5,0.91,0.91,0,0,1-.17,1,0.72,0.72,0,0,1-.54.3,2.09,2.09,0,0,1-.64-0.12,3,3,0,0,1-.68.07l-1.14-.05a1.14,1.14,0,0,1-.91.43,1.31,1.31,0,0,1-.92-0.34,1,1,0,0,1-.37-0.79L32.59,48q0-4-.35-12.09T31.88,23.8a0.63,0.63,0,0,1,.26-0.53,1.07,1.07,0,0,1,1.36.1A1,1,0,0,1,33.82,24.09Z" transform="translate(-31.79 -10.99)"/><path class="cls-1" d="M48.66,44.54l-0.19.71a16.48,16.48,0,0,0,.31,2.11,15.68,15.68,0,0,1,.31,2.2v0a1,1,0,0,1-.54,1,2.32,2.32,0,0,1-1.16-.24A1.34,1.34,0,0,1,47,49.14a30.74,30.74,0,0,0-.52-4L45.37,45H44.19a3.92,3.92,0,0,0-1.4-.17s0,0.18,0,.46L42.68,46q0,0.26-.09.77c0,0.34-.08.63-0.13,0.87s-0.1.51-.17,0.83a4.94,4.94,0,0,1-.23.8,6.69,6.69,0,0,1-.29.61,0.9,0.9,0,0,1-.76.61,1.3,1.3,0,0,1-.81-0.27,0.82,0.82,0,0,1-.35-0.68q0.94-3.58,1.6-7.52t0.8-4.67q0.13-.74.61-2.84t0.57-2.81q0.1-.71.18-1.83a7.39,7.39,0,0,1,.64-3.17h1.19q1.21,0,1.21.73A70,70,0,0,0,48,41q0.07,0.4.26,1.11A10,10,0,0,1,48.66,44.54Zm-2.42-.76a9.55,9.55,0,0,1-.1-1.68q0-1.16-.15-2.81t-0.42-3.83q-0.28-2.18-.38-3.15-0.21,1-.81,3.36a35.49,35.49,0,0,0-1.26,7.55A8.29,8.29,0,0,0,46.23,43.78Z" transform="translate(-31.79 -10.99)"/><path class="cls-1" d="M61.45,29.68l-0.07,4.57a22.63,22.63,0,0,0,.55,5.44v0a13,13,0,0,0-.24,2.7L62,48.78q0,1.73-1,1.73A0.91,0.91,0,0,1,60.1,50a2.71,2.71,0,0,1-.28-1.23l0.28-5.66q0-1.84-.24-5.52T59.62,32l0.05-3.1a10.28,10.28,0,0,0-.33-3.31l-1.92.19a1.3,1.3,0,0,1-.81-0.27,0.83,0.83,0,0,1-.35-0.69,1,1,0,0,1,.85-0.73,9.39,9.39,0,0,1,2.08-.44,32.6,32.6,0,0,1,3.58-.24,1.23,1.23,0,0,1,.79.29,0.89,0.89,0,0,1,.35.72,0.83,0.83,0,0,1-.31.68,1.17,1.17,0,0,1-.76.25l-1.26-.07-0.36,0A37.09,37.09,0,0,1,61.45,29.68Z" transform="translate(-31.79 -10.99)"/><path class="cls-1" d="M68.33,39.78a7.69,7.69,0,0,0-.24,1.83q0,0.84.22,3.58t0.22,3.54a2.14,2.14,0,0,1-.29,1.21,0.8,0.8,0,0,1-.65.42,0.7,0.7,0,0,1-.66-0.71q0-1.32,0-3.23T66.66,38q-0.3-6.49-.3-9.7,0-1.68,1.18-1.68a5,5,0,0,1,3.12,1,3.29,3.29,0,0,1,1.26,2.77,14.58,14.58,0,0,1-.38,3.78,18.68,18.68,0,0,1-1.44,3.38q0.19,0.85.68,3.39a30.26,30.26,0,0,0,2.3,7.95A2.58,2.58,0,0,1,73.44,50a1,1,0,0,1-.22.66,0.71,0.71,0,0,1-.58.27q-1.16,0-2.13-3.86-0.42-1.68-.74-3.39a50.87,50.87,0,0,0-1.19-5.28A6.85,6.85,0,0,1,68.33,39.78ZM68.28,28l-0.12.5q0,1.45.07,4.2t0.07,4a3.49,3.49,0,0,0,1.34-2.26,11.33,11.33,0,0,0,.51-2.8,14,14,0,0,0-.05-1.43,5.52,5.52,0,0,0-.23-1A1.54,1.54,0,0,0,68.28,28Z" transform="translate(-31.79 -10.99)"/><path class="cls-1" d="M84.55,34.46l0,0.61a27.52,27.52,0,0,0-.34,4.29q-0.08,3-.3,4.9a23.64,23.64,0,0,1-.61,3.27,5.65,5.65,0,0,1-1.22,2.35,2.48,2.48,0,0,1-1.87.94,3.39,3.39,0,0,1-1.69-.37,2.9,2.9,0,0,1-1.07-1.07,8.11,8.11,0,0,1-.69-1.51A9.53,9.53,0,0,1,76.38,46a30.16,30.16,0,0,1-.24-3.91l0.19-9.35a24.73,24.73,0,0,0-.43-5.07V26.81a1.59,1.59,0,0,1,1.34.66,2.39,2.39,0,0,1,.49,1.47V46.1a4.75,4.75,0,0,0,.68,2.5,2.21,2.21,0,0,0,2,1.13q1.51,0,2-8.76V40.82l0-.23q0.45-8,.45-13l0-.59a0.89,0.89,0,0,1,.19-0.62,1,1,0,0,1,.73-0.21,1,1,0,0,1,.8.29,1.16,1.16,0,0,1,.3.6,6.12,6.12,0,0,1,0,.82L84.71,31.5Z" transform="translate(-31.79 -10.99)"/><path class="cls-1" d="M90.49,37.23l0.66,0q1.71,0,1.71.94a0.9,0.9,0,0,1-.38.75,1.62,1.62,0,0,1-1,.29A4.21,4.21,0,0,1,90.22,39V49q0,1.77-1.19,1.77L88,50q0.28-3.06.37-8.74t0.28-8.86q0.18-3.19.18-4.74a0.88,0.88,0,0,1,.42-0.78,1.7,1.7,0,0,1,1-.28q0.53,0,1.15,0,3.5,0.26,3.5,1.4t-1.8,1a5.51,5.51,0,0,0-2.27-.35v0.42l-0.33,7.12v1Z" transform="translate(-31.79 -10.99)"/><path class="cls-1" d="M99.86,37.23l0.66,0q1.71,0,1.72.94a0.9,0.9,0,0,1-.38.75,1.62,1.62,0,0,1-1,.29A4.21,4.21,0,0,1,99.58,39V49q0,1.77-1.2,1.77l-1-.75q0.28-3.06.37-8.74t0.28-8.86q0.18-3.19.18-4.74a0.88,0.88,0,0,1,.42-0.78,1.7,1.7,0,0,1,1-.28q0.53,0,1.15,0,3.5,0.26,3.5,1.4t-1.8,1a5.51,5.51,0,0,0-2.27-.35v0.42l-0.33,7.12v1Z" transform="translate(-31.79 -10.99)"/><path class="cls-1" d="M110.34,48.94l1.4-.09q1.35,0,1.35.87a0.82,0.82,0,0,1-.47.78,2.26,2.26,0,0,1-1.06.24h-3.34a1.06,1.06,0,0,1-.77-0.31,1.15,1.15,0,0,1-.35-0.8,6.71,6.71,0,0,1,.07-1.21,9.65,9.65,0,0,0,.1-1.16l-0.17-4.54,0.24-10.35-0.19-3q0-2.51,1.49-2.51a1.31,1.31,0,0,1,.78.26l0.67,0.06c0.35,0,.66.07,0.93,0.11s0.55,0.11.87,0.19a1.08,1.08,0,0,1,1,1,1.26,1.26,0,0,1-1,1.11,13.53,13.53,0,0,0-2.68-.67q0.05,0.76.05,1.52l-0.16,5.09s0,0.21.1,0.55l1.26-.05q1.71,0,1.71,1a1.48,1.48,0,0,1-.3.92,1,1,0,0,1-.86.4,1.57,1.57,0,0,1-1-.31h-0.9q0.11,1.35.11,2.56l-0.16,6.42Q109.06,48.94,110.34,48.94Z" transform="translate(-31.79 -10.99)"/><path class="cls-1" d="M130.49,25.27l-0.14,13.11V49.22a1.3,1.3,0,0,1-.69,1.23,1.61,1.61,0,0,1-.75.19,1.14,1.14,0,0,1-.59-0.12,0.87,0.87,0,0,1-.3-0.29,1.82,1.82,0,0,1-.18-0.43,3.57,3.57,0,0,1-.11-0.49Q127.53,48,126.41,44a108.6,108.6,0,0,1-2.79-11.69,1.35,1.35,0,0,1,0-.33c0-.14,0-0.25,0-0.35a1.14,1.14,0,0,0-.19-0.62,6.6,6.6,0,0,0-.3-1.86c-0.21-.76-0.33-1.21-0.36-1.36V50.24h-1.25V49.58a3.79,3.79,0,0,0,0-1.09,19.12,19.12,0,0,1-.09-2q0-1.14-.22-5.26t-0.22-5V31.69l0.24-6.51a2.85,2.85,0,0,1,.19-1.47,1.52,1.52,0,0,1,.94-0.35,1.61,1.61,0,0,1,.74.14,1,1,0,0,1,.61.92,4.94,4.94,0,0,0,.14,1.17,11.91,11.91,0,0,0,.4,1.3c0.17,0.48.29,0.85,0.36,1.1a8.61,8.61,0,0,1,.18.88c0.05,0.33.09,0.63,0.11,0.9q0.12,1.33.3,2.3t0.7,2.88q0.52,1.91,1,3.39a28,28,0,0,1,1.33,6.77,3.36,3.36,0,0,1,.35,1.26L128.59,34V23.52a1.07,1.07,0,0,1,1.17-.88q1,0,1,1.39v0.21A2.36,2.36,0,0,0,130.49,25.27Z" transform="translate(-31.79 -10.99)"/><path class="cls-1" d="M142.39,40.73q0,10.2-4.17,10.2-3.85,0-4.31-9.66,0-.92,0-1.84l0-2.16V36.58q0-7.5,2.2-9.26a2,2,0,0,1,1.2-.47,9.59,9.59,0,0,0,1.23.32,5.4,5.4,0,0,1,1.07.3A3.79,3.79,0,0,1,140.94,29a9.6,9.6,0,0,1,1.1,3.31,24.31,24.31,0,0,1,.36,4.15v4.28Zm-6.58-8.35,0.05,2.08,0,3.39q0,0.43,0,1t0,1.55q0,1,.1,1.9t0.18,2q0.11,1,.28,1.94t0.38,1.62q0.47,1.58,1.23,1.58,1,0,1.56-1.92a26.64,26.64,0,0,0,.79-7l0.05-3.65a25.47,25.47,0,0,0-.34-5.18,14,14,0,0,0-.63-2,1.91,1.91,0,0,0-1.79-1.37h-0.07Q135.81,28.3,135.81,32.39Z" transform="translate(-31.79 -10.99)"/><path class="cls-1" d="M150.29,49.88l-1.33,0-1.54.07a1.34,1.34,0,0,1-1.32-.64,2,2,0,0,1,.13-0.81,0.53,0.53,0,0,1,.54-0.29h1l0.07-.47-0.24-7.53,0.19-7.9q0-2-.17-3.77h-1.38a1.69,1.69,0,0,1-.93-0.2,0.85,0.85,0,0,1-.29-0.75q0-.83,1.92-0.81h0.12q4.55,0,4.55,1.21a2,2,0,0,1-.21.66h-1.82a29.32,29.32,0,0,1,.14,3l-0.19,6.77L149.8,46v1.06a5.76,5.76,0,0,1-.12,1h1.51c1,0,1.46.29,1.46,0.88a1,1,0,0,1-.25.68,0.75,0.75,0,0,1-.56.28Z" transform="translate(-31.79 -10.99)"/><path class="cls-1" d="M157.13,39.78a7.66,7.66,0,0,0-.24,1.83q0,0.84.22,3.58t0.22,3.54a2.14,2.14,0,0,1-.29,1.21,0.8,0.8,0,0,1-.65.42,0.7,0.7,0,0,1-.66-0.71q0-1.32,0-3.23T155.46,38q-0.3-6.49-.3-9.7,0-1.68,1.18-1.68a5,5,0,0,1,3.12,1,3.28,3.28,0,0,1,1.26,2.77,14.58,14.58,0,0,1-.38,3.78,18.69,18.69,0,0,1-1.44,3.38q0.19,0.85.67,3.39a30.32,30.32,0,0,0,2.3,7.95,2.56,2.56,0,0,1,.37,1.08,1,1,0,0,1-.22.66,0.71,0.71,0,0,1-.58.27q-1.16,0-2.13-3.86-0.41-1.68-.74-3.39a50.36,50.36,0,0,0-1.2-5.28A6.81,6.81,0,0,1,157.13,39.78ZM157.07,28l-0.12.5q0,1.45.07,4.2t0.07,4a3.5,3.5,0,0,0,1.34-2.26,11.34,11.34,0,0,0,.51-2.8q0-1-.05-1.43a5.58,5.58,0,0,0-.23-1A1.54,1.54,0,0,0,157.07,28Z" transform="translate(-31.79 -10.99)"/><path class="cls-1" d="M168.31,48.94l1.4-.09q1.35,0,1.35.87a0.82,0.82,0,0,1-.47.78,2.27,2.27,0,0,1-1.06.24H166.2a1.07,1.07,0,0,1-.77-0.31,1.16,1.16,0,0,1-.35-0.8,6.87,6.87,0,0,1,.07-1.21,9.26,9.26,0,0,0,.1-1.16l-0.17-4.54,0.24-10.35-0.19-3q0-2.51,1.49-2.51a1.31,1.31,0,0,1,.78.26l0.67,0.06c0.35,0,.66.07,0.93,0.11s0.55,0.11.87,0.19a1.08,1.08,0,0,1,1,1,1.26,1.26,0,0,1-1,1.11,13.54,13.54,0,0,0-2.69-.67q0.05,0.76.05,1.52L167,35.49s0,0.21.1,0.55L168.4,36q1.71,0,1.71,1a1.47,1.47,0,0,1-.3.92,1,1,0,0,1-.86.4,1.57,1.57,0,0,1-1-.31h-0.9q0.1,1.35.1,2.56L167,46.95Q167,48.94,168.31,48.94Z" transform="translate(-31.79 -10.99)"/><path class="cls-1" d="M70.68,15.55a2.79,2.79,0,0,1,.78.13,2.36,2.36,0,0,1,.64.32,1.45,1.45,0,0,1,.5.63L73.68,19l0.6,0.18v0.18H72.6a1.36,1.36,0,0,1-.89-0.28,2,2,0,0,1-.55-0.74L70,15.67H69.18V19L70,19.21v0.18H66.48V19.21L67.2,19V11.35l-0.72-.18V11h3.18a8,8,0,0,1,1.81.17,3.57,3.57,0,0,1,1.18.48,1.8,1.8,0,0,1,.65.74,2.24,2.24,0,0,1,.2.95,2,2,0,0,1-.12.71,1.91,1.91,0,0,1-.32.54,1.85,1.85,0,0,1-.46.39,3,3,0,0,1-.52.25,4.26,4.26,0,0,1-1.4.26v0.06Zm-1-.18A1.71,1.71,0,0,0,71,14.85a2.13,2.13,0,0,0,.49-1.52A2.13,2.13,0,0,0,71,11.81a1.71,1.71,0,0,0-1.31-.52H69.18v4.08h0.48Z" transform="translate(-31.79 -10.99)"/><path class="cls-1" d="M78,19.57a3.24,3.24,0,0,1-2.39-.85,3.14,3.14,0,0,1-.85-2.33A3.84,3.84,0,0,1,75,15.06a3,3,0,0,1,.6-1,2.51,2.51,0,0,1,.93-0.63,3.21,3.21,0,0,1,1.19-.22,3.55,3.55,0,0,1,1.21.19,2.81,2.81,0,0,1,.91.52,2.22,2.22,0,0,1,.77,1.69,2.16,2.16,0,0,1,0,.29c0,0.08,0,.16,0,0.22l-0.06.2q-0.53.11-1.12,0.18t-1.16.13q-0.66.05-1.38,0.05a6,6,0,0,0,.11,1.24,2.37,2.37,0,0,0,.3.79,1.13,1.13,0,0,0,.46.42,1.32,1.32,0,0,0,.58.13,1.75,1.75,0,0,0,.68-0.13,1.79,1.79,0,0,0,.55-0.35,1.75,1.75,0,0,0,.37-0.5A1.29,1.29,0,0,0,80,17.71h0.3a1.59,1.59,0,0,1-.16.7,1.82,1.82,0,0,1-.46.59,2.34,2.34,0,0,1-.72.41A2.67,2.67,0,0,1,78,19.57Zm-1.2-3.18,0.72,0,0.53,0,0.43-.06c0-.08,0-0.17.06-0.26s0-.19,0-0.29a3,3,0,0,0,0-.34,4.12,4.12,0,0,0-.08-0.91,2.3,2.3,0,0,0-.21-0.59A0.83,0.83,0,0,0,78,13.55a0.63,0.63,0,0,0-.32-0.1,0.55,0.55,0,0,0-.32.11,0.94,0.94,0,0,0-.29.43,4.14,4.14,0,0,0-.21.89A10.77,10.77,0,0,0,76.8,16.39Z" transform="translate(-31.79 -10.99)"/><path class="cls-1" d="M84.3,19.57a2.73,2.73,0,0,1-.76-0.1A2.8,2.8,0,0,1,83,19.25a1.9,1.9,0,0,1-.47-0.34,1.75,1.75,0,0,1-.21.24,1.37,1.37,0,0,1-.21.17,1.22,1.22,0,0,1-.24.13h-0.3v-2H82a3.39,3.39,0,0,0,.46.94,2.74,2.74,0,0,0,.62.64,1.55,1.55,0,0,0,1,.29A1,1,0,0,0,84.82,19a0.94,0.94,0,0,0,.26-0.71,0.76,0.76,0,0,0-.26-0.58,3.34,3.34,0,0,0-.64-0.46q-0.38-.22-0.84-0.44a5.71,5.71,0,0,1-.84-0.5,2.76,2.76,0,0,1-.64-0.64,1.57,1.57,0,0,1-.12-1.51,1.35,1.35,0,0,1,.44-0.52A2.34,2.34,0,0,1,83,13.34a4.59,4.59,0,0,1,1.15-.13,2,2,0,0,1,.66.1,2.61,2.61,0,0,1,.52.23,2.76,2.76,0,0,1,.46.32A1.47,1.47,0,0,1,86,13.64l0.21-.17,0.24-.13h0.3v2H86.23a4.32,4.32,0,0,0-.44-0.92,3,3,0,0,0-.58-0.64,1.28,1.28,0,0,0-.85-0.29,0.74,0.74,0,0,0-.55.24,0.83,0.83,0,0,0-.23.6,0.86,0.86,0,0,0,.26.62,3.09,3.09,0,0,0,.64.49q0.38,0.23.84,0.44a5.74,5.74,0,0,1,.84.49,2.85,2.85,0,0,1,.64.61,1.32,1.32,0,0,1,.26.82,1.68,1.68,0,0,1-.14.7,1.39,1.39,0,0,1-.47.55,2.4,2.4,0,0,1-.85.36A5.69,5.69,0,0,1,84.3,19.57Z" transform="translate(-31.79 -10.99)"/><path class="cls-1" d="M88.5,12.79a1,1,0,0,1,1.08-1.08h0.84v1.68H92.1v0.3H90.42v3.66a5.68,5.68,0,0,0,.07,1,2,2,0,0,0,.18.59,0.63,0.63,0,0,0,.28.29,0.87,0.87,0,0,0,.37.08,0.83,0.83,0,0,0,.4-0.1,1.11,1.11,0,0,0,.35-0.3,1.5,1.5,0,0,0,.25-0.49,2.26,2.26,0,0,0,.09-0.67h0.3a2,2,0,0,1-.45,1.38,1.53,1.53,0,0,1-1.17.48A3.25,3.25,0,0,1,90,19.4a2.4,2.4,0,0,1-.81-0.47,2,2,0,0,1-.51-0.71,2.21,2.21,0,0,1-.17-0.88V13.69H87.66v-0.3H88.5v-0.6Z" transform="translate(-31.79 -10.99)"/><path class="cls-1" d="M96.06,13.21a3.92,3.92,0,0,1,1.28.19,2.73,2.73,0,0,1,.94.53,2.23,2.23,0,0,1,.58.82,2.67,2.67,0,0,1,.2,1V19l0.72,0.18v0.18H98.7a1.5,1.5,0,0,1-.7-0.14,1.53,1.53,0,0,1-.42-0.31,1.31,1.31,0,0,1-.26-0.46,1.93,1.93,0,0,1-.4.54,2.07,2.07,0,0,1-.54.37,1.78,1.78,0,0,1-.8.17,3.38,3.38,0,0,1-1-.13,2,2,0,0,1-.69-0.35A1.43,1.43,0,0,1,93.36,18a2.05,2.05,0,0,1,.06-0.51A2.32,2.32,0,0,1,93.57,17a2.63,2.63,0,0,1,.22-0.4q0.5-.12,1.07-0.22l1.08-.16q0.6-.08,1.21-0.1V15.79a6.11,6.11,0,0,0-.09-1.15,2.12,2.12,0,0,0-.26-0.72,0.91,0.91,0,0,0-.41-0.37,1.45,1.45,0,0,0-.56-0.1l-0.24,0-0.19,0-0.17.06v1.8l-0.16,0-0.15,0H94.74a0.85,0.85,0,0,1-.9-0.9A1,1,0,0,1,94,14a1.22,1.22,0,0,1,.4-0.42,2.26,2.26,0,0,1,.69-0.3A3.88,3.88,0,0,1,96.06,13.21Zm-0.48,3.36a1.89,1.89,0,0,0-.12.36,3.33,3.33,0,0,0-.08.4,3.19,3.19,0,0,0,0,.5,1.77,1.77,0,0,0,.22,1,0.62,0.62,0,0,0,.5.3A0.76,0.76,0,0,0,96.54,19a1.6,1.6,0,0,0,.33-0.33,2.76,2.76,0,0,0,.28-0.48V16.45l-0.55,0-0.5,0Z" transform="translate(-31.79 -10.99)"/><path class="cls-1" d="M101.88,13.39A1,1,0,0,1,103,14.47v3.12a2.55,2.55,0,0,0,.08.7,1.76,1.76,0,0,0,.21.49,0.83,0.83,0,0,0,.29.28,0.65,0.65,0,0,0,.32.09,0.76,0.76,0,0,0,.47-0.15,1.63,1.63,0,0,0,.33-0.33,2.79,2.79,0,0,0,.28-0.48V13.75l-0.72-.18V13.39h3.36v0.18l-0.72.18v5.7h-0.12a2,2,0,0,1-.85-0.15,1.57,1.57,0,0,1-.49-0.33,1.23,1.23,0,0,1-.29-0.48,1.93,1.93,0,0,1-.4.54,2.06,2.06,0,0,1-.54.37,1.78,1.78,0,0,1-.8.17,2.6,2.6,0,0,1-.95-0.17A2.38,2.38,0,0,1,101.7,19a2.09,2.09,0,0,1-.48-0.63,1.65,1.65,0,0,1-.17-0.74V13.75l-0.72-.18V13.39h1.56Z" transform="translate(-31.79 -10.99)"/><path class="cls-1" d="M112.44,13.63a1.35,1.35,0,0,0-.64.15,2.2,2.2,0,0,0-.47.33,2.72,2.72,0,0,0-.38.48V19l0.72,0.18v0.18H108.3V19.21L109,19V13.75l-0.72-.18V13.39h1.08a1.46,1.46,0,0,1,.69.14,1.63,1.63,0,0,1,.43.31,1.33,1.33,0,0,1,.26.44,2.3,2.3,0,0,1,.44-0.48,2.69,2.69,0,0,1,.56-0.33,1.9,1.9,0,0,1,.79-0.15,1.34,1.34,0,0,1,1,.3,1.11,1.11,0,0,1,.31.84,0.85,0.85,0,0,1-.9.9h-0.19l-0.15,0-0.14,0V13.63Z" transform="translate(-31.79 -10.99)"/><path class="cls-1" d="M116.94,13.21a3.92,3.92,0,0,1,1.28.19,2.74,2.74,0,0,1,.94.53,2.23,2.23,0,0,1,.58.82,2.67,2.67,0,0,1,.2,1V19l0.72,0.18v0.18h-1.08a1.5,1.5,0,0,1-.7-0.14,1.54,1.54,0,0,1-.42-0.31,1.3,1.3,0,0,1-.26-0.46,1.93,1.93,0,0,1-.4.54,2.06,2.06,0,0,1-.54.37,1.78,1.78,0,0,1-.8.17,3.38,3.38,0,0,1-1-.13,2,2,0,0,1-.69-0.35,1.44,1.44,0,0,1-.41-0.52,1.47,1.47,0,0,1-.14-0.63,2.05,2.05,0,0,1,.06-0.51,2.32,2.32,0,0,1,.14-0.41,2.59,2.59,0,0,1,.22-0.4q0.5-.12,1.07-0.22l1.08-.16q0.6-.08,1.21-0.1V15.79a6.07,6.07,0,0,0-.09-1.15,2.1,2.1,0,0,0-.26-0.72,0.9,0.9,0,0,0-.41-0.37,1.45,1.45,0,0,0-.56-0.1l-0.24,0-0.19,0-0.17.06v1.8l-0.16,0-0.15,0h-0.17a0.85,0.85,0,0,1-.9-0.9,1,1,0,0,1,.13-0.49,1.22,1.22,0,0,1,.4-0.42,2.25,2.25,0,0,1,.69-0.3A3.88,3.88,0,0,1,116.94,13.21Zm-0.48,3.36a1.93,1.93,0,0,0-.12.36,3.43,3.43,0,0,0-.08.4,3.19,3.19,0,0,0,0,.5,1.77,1.77,0,0,0,.22,1,0.62,0.62,0,0,0,.5.3,0.76,0.76,0,0,0,.47-0.15,1.6,1.6,0,0,0,.33-0.33,2.79,2.79,0,0,0,.28-0.48V16.45l-0.55,0-0.5,0Z" transform="translate(-31.79 -10.99)"/><path class="cls-1" d="M126,15.19a2.59,2.59,0,0,0-.08-0.7,1.8,1.8,0,0,0-.21-0.49,0.84,0.84,0,0,0-.29-0.28,0.66,0.66,0,0,0-.32-0.09,0.79,0.79,0,0,0-.48.15,1.56,1.56,0,0,0-.34.33,2.32,2.32,0,0,0-.26.48V19l0.72,0.18v0.18h-3.36V19.21L122.1,19V13.75l-0.72-.18V13.39h1.08a1.46,1.46,0,0,1,.69.14,1.6,1.6,0,0,1,.43.31,1.35,1.35,0,0,1,.26.44,2.18,2.18,0,0,1,.4-0.54,2.12,2.12,0,0,1,.53-0.37,1.77,1.77,0,0,1,.81-0.17,2.6,2.6,0,0,1,.95.17,2.38,2.38,0,0,1,.74.44,2.08,2.08,0,0,1,.48.63,1.66,1.66,0,0,1,.17.74V19l0.72,0.18v0.18h-1.56A1,1,0,0,1,126,18.31V15.19Z" transform="translate(-31.79 -10.99)"/><path class="cls-1" d="M129.9,12.79A1,1,0,0,1,131,11.71h0.84v1.68h1.68v0.3h-1.68v3.66a5.68,5.68,0,0,0,.07,1,2,2,0,0,0,.18.59,0.63,0.63,0,0,0,.28.29,0.87,0.87,0,0,0,.37.08,0.83,0.83,0,0,0,.4-0.1,1.12,1.12,0,0,0,.35-0.3,1.52,1.52,0,0,0,.25-0.49,2.28,2.28,0,0,0,.09-0.67h0.3a2,2,0,0,1-.45,1.38,1.53,1.53,0,0,1-1.17.48,3.25,3.25,0,0,1-1.09-.17,2.4,2.4,0,0,1-.81-0.47,2,2,0,0,1-.51-0.71,2.22,2.22,0,0,1-.17-0.88V13.69h-0.84v-0.3h0.84v-0.6Z" transform="translate(-31.79 -10.99)"/><path class="cls-1" d="M59,16.86a0.57,0.57,0,0,0,0-1A40.13,40.13,0,0,0,50,12a0.58,0.58,0,0,0-.65.84,10.6,10.6,0,0,0,2.37,2.41c-6.5-.18-13.23-1.07-19.64.46-0.46.09-.37,0.88,0.09,0.84,6.64-.84,13.23-0.19,19.87-0.09-0.7.79-1.39,1.58-2.09,2.32a0.57,0.57,0,0,0,.42,1A22.48,22.48,0,0,0,59,16.86h0Zm-5.52-.51a0.58,0.58,0,0,0-.32-1.07H53c-0.56-.56-1.12-1.07-1.67-1.67a42.51,42.51,0,0,1,6.13,2.74,20.62,20.62,0,0,1-5.67,2c0.46-.51.93-1.07,1.44-1.58a0.34,0.34,0,0,0,.19-0.42h0Zm0,0" transform="translate(-31.79 -10.99)"/><path class="cls-1" d="M140.94,16.86a22.48,22.48,0,0,0,8.59,2.92,0.57,0.57,0,0,0,.42-1c-0.7-.74-1.39-1.53-2.09-2.32,6.64-.09,13.23-0.74,19.87.09,0.46,0,.56-0.74.09-0.84-6.41-1.53-13.14-.65-19.64-0.46a10.6,10.6,0,0,0,2.37-2.41A0.58,0.58,0,0,0,149.9,12a40.13,40.13,0,0,0-9,3.85,0.57,0.57,0,0,0,0,1h0Zm5.52-.51a0.34,0.34,0,0,0,.19.42c0.51,0.51,1,1.07,1.44,1.58a20.62,20.62,0,0,1-5.67-2,42.51,42.51,0,0,1,6.13-2.74c-0.56.6-1.12,1.12-1.67,1.67h-0.09a0.58,0.58,0,0,0-.32,1.07h0Zm0,0" transform="translate(-31.79 -10.99)"/><path class="cls-1" d="M61.18,55.55l0-.31c0-.1.14-0.12,0.36-0.07a1.4,1.4,0,0,1,1,.62,2,2,0,0,1,.29.93q0,0.46,0,.71a3.15,3.15,0,0,1,0,.8,5.79,5.79,0,0,1-.91,1.9,6,6,0,0,0-.49.76,16.86,16.86,0,0,0-.09,3.41A34.08,34.08,0,0,0,61.62,68c-0.08.36-.2,0.53-0.34,0.49A0.34,0.34,0,0,1,61,68.3l-0.09-.2a8.51,8.51,0,0,0,0-1.9Q60.8,65,60.8,64.55t0-1.64q0-1.23,0-1.9l-0.11-.13-0.35.06L59,67.17,59,67.59a0.31,0.31,0,0,1-.56.14,0.27,0.27,0,0,1,0-.22l0.08-.08,2.33-10.05Zm0.44,0.19-0.9,3.6a8.64,8.64,0,0,0-.19,1.07h0a1,1,0,0,0,.51-0.24,3.58,3.58,0,0,0,.55-0.45A2.11,2.11,0,0,0,62,59.09a5.38,5.38,0,0,0,.25-0.76,5.26,5.26,0,0,0,.1-0.66,7.08,7.08,0,0,0,0-.77,1.73,1.73,0,0,0-.16-0.73,0.63,0.63,0,0,0-.43-0.37v0H61.63Z" transform="translate(-31.79 -10.99)"/><path class="cls-1" d="M63.36,68.64l0.1-.42,0-.08a2,2,0,0,0,.26-0.66L64,65.27l1.1-5,0.33-2A0.43,0.43,0,0,1,66,57.88a0.33,0.33,0,0,1,.25.16l0.47,0.16q1,0.31,1,.62a0.54,0.54,0,0,1-.38.25A5.73,5.73,0,0,0,66,58.49l-0.1.08c0,0.16-.06.4-0.12,0.72l-0.57,2.58q-0.09.46,0.15,0.51L66,62.46q0.64,0.12.59,0.43a0.55,0.55,0,0,1-.14.29,0.35,0.35,0,0,1-.33.07,0.4,0.4,0,0,1-.3-0.19l-0.53-.19H65.17l-0.1.07v0q-0.05.44-.23,1.33l-0.5,2.36a3.7,3.7,0,0,0-.13,1.89,0.88,0.88,0,0,0,.51.23l0.63,0.09q0.49,0.1.45,0.32T65,69.32l-1.38-.27A0.32,0.32,0,0,1,63.36,68.64Z" transform="translate(-31.79 -10.99)"/><path class="cls-1" d="M70.12,69.88l-0.55-.15a0.7,0.7,0,0,0-.33,0,0.93,0.93,0,0,1-.45,0,0.3,0.3,0,0,1-.29-0.22l-0.28,0a0.5,0.5,0,0,1-.43-0.25,0.22,0.22,0,0,1,.12-0.16L68.07,69l0.48,0.08,0.08-.05,0.12-.34L69.25,65,70,61.14q0.19-1.14.25-2a1.92,1.92,0,0,0-.49-0.13l-0.41,0a0.27,0.27,0,0,1-.27-0.34,0.2,0.2,0,0,1,.17-0.11,0.66,0.66,0,0,1,.26,0q2.33,0.4,2.25.9a0.32,0.32,0,0,1-.06.12l-0.39,0a0.86,0.86,0,0,0-.47-0.18l-0.09,0a4.41,4.41,0,0,1-.1.9l-0.73,4L69.41,68l-0.1.51a1.21,1.21,0,0,0,0,.47l0,0q0,0.16.34,0.23l0.49,0.07c0.33,0.06.49,0.16,0.46,0.32a0.31,0.31,0,0,1-.15.22A0.38,0.38,0,0,1,70.12,69.88Z" transform="translate(-31.79 -10.99)"/><path class="cls-1" d="M79.52,67.92l-0.27,1.76a7,7,0,0,0-.07,1.77,0.68,0.68,0,0,1,0,.22A0.69,0.69,0,0,1,79,72a0.31,0.31,0,0,1-.29.15q-0.34,0-.19-1.12,0.47-3.51.52-4.29t0.05-1.26a6.1,6.1,0,0,1,0-.74l0.34-2.08a3.15,3.15,0,0,0,0-.81q-0.36.22-3,6.83a1.81,1.81,0,0,0-.07.24c0,0.13-.06.24-0.1,0.34a3.41,3.41,0,0,1-.12.32,0.41,0.41,0,0,1-.4.33,0.48,0.48,0,0,1-.37-0.19,0.66,0.66,0,0,1-.06-0.43,28.77,28.77,0,0,0-.32-4.3A16.67,16.67,0,0,0,74.48,61q-0.16.9-.52,2.75Q73.22,67.66,73,69t-0.19,1.56a0.33,0.33,0,0,1-.38.17,0.34,0.34,0,0,1-.16-0.11,0.25,0.25,0,0,1-.1-0.16q0.24-1.78,1-5.28t1-5.28l-0.06-.33q0-.25.49-0.2a0.32,0.32,0,0,1,.29.31,2,2,0,0,1,0,.43,4.33,4.33,0,0,0,0,.5,6.71,6.71,0,0,0,.28,1.19A10.28,10.28,0,0,1,75.48,63q0,0.32.11,0.78,0.14,1,.17,1.5l0.16,0.47c0,0.19,0,.47.08,0.85a9.18,9.18,0,0,1,.05,1.86,27.18,27.18,0,0,0,1.52-3.34q1.29-3.07,1.42-3.48c0.09-.27.15-0.48,0.2-0.62s0.08-.25.11-0.34l0.13-.3a0.44,0.44,0,0,1,.46-0.29,0.54,0.54,0,0,1,.25.13,0.27,0.27,0,0,1,.13.23Q79.34,67.52,79.52,67.92Zm0-6.2h0l0,0v0Z" transform="translate(-31.79 -10.99)"/><path class="cls-1" d="M83.92,60.87l-0.35-.13a0.62,0.62,0,0,0-.48.17,1.35,1.35,0,0,0-.35.5,3.23,3.23,0,0,0-.3.94c0,0.23,0,.4,0,0.5a3.13,3.13,0,0,0,0,.35l0,0.29c0,0.06,0,.17.06,0.35l0.06,0.3,0.09,0.32L83,65.24,83.37,66q0.11,0.24.25,0.64a3.76,3.76,0,0,1,.18.71,5.63,5.63,0,0,1,.07,1.43,8,8,0,0,1-.15,1,4,4,0,0,1-.26.75,3.07,3.07,0,0,1-.4.66,1.45,1.45,0,0,1-1.34.57l-0.09,0a0.57,0.57,0,0,1-.5-0.47l0.1-.12,0.6,0.18a0.89,0.89,0,0,0,.7-0.24,1.93,1.93,0,0,0,.5-0.72,5.81,5.81,0,0,0,.4-1.57,4.47,4.47,0,0,0-.07-1.4,6.78,6.78,0,0,0-.39-1.24L82.46,65A5.27,5.27,0,0,1,82,62.41a3.34,3.34,0,0,1,.35-1.21,1.34,1.34,0,0,1,1.21-1,0.8,0.8,0,0,1,.4.19,0.4,0.4,0,0,1,.2.35C84.15,60.85,84.07,60.89,83.92,60.87ZM84,60.82v0h0A0,0,0,0,0,84,60.82Z" transform="translate(-31.79 -10.99)"/><path class="cls-1" d="M91.65,66.17a1.65,1.65,0,0,1-1.13.26,12.77,12.77,0,0,1-1.53.06,1.11,1.11,0,0,1-.53-0.11,0.24,0.24,0,0,1-.1-0.22,1.68,1.68,0,0,1,1.14-.26A13.76,13.76,0,0,1,91,65.84Q91.67,65.88,91.65,66.17Z" transform="translate(-31.79 -10.99)"/><path class="cls-1" d="M96.5,64.13l-0.18,1.23q0,1,.15,3.36a9.73,9.73,0,0,0,.4,2.72,1.5,1.5,0,0,0,1.33.72,1.62,1.62,0,0,0,1.32-.46,1.63,1.63,0,0,0,.39,0L100,71.74q0,0.81-1.32,1a3.74,3.74,0,0,1-.69,0,1.63,1.63,0,0,1-.9-0.4,2.23,2.23,0,0,1-.72-0.86,13,13,0,0,1-.36-2.9q-0.15-2.43-.11-4.27A11.41,11.41,0,0,1,96,62.21a2.77,2.77,0,0,1,0-.55,1.9,1.9,0,0,1,.77-1.57,2.83,2.83,0,0,1,1.81-.53,1.38,1.38,0,0,1,.63.2,0.53,0.53,0,0,1,.33.46c0,0.13-.09.19-0.27,0.19a0.4,0.4,0,0,1-.21-0.11,0.4,0.4,0,0,0-.22-0.11,0.6,0.6,0,0,0-.19,0,1.28,1.28,0,0,0-.41-0.08,1.82,1.82,0,0,0-.5.08,1.66,1.66,0,0,0-.49.21,1.16,1.16,0,0,0-.34.36,2.58,2.58,0,0,0-.22.44,2.68,2.68,0,0,0-.13.54,11.5,11.5,0,0,0-.08,1.17Z" transform="translate(-31.79 -10.99)"/><path class="cls-1" d="M104,61.32l0.09-.08a0.27,0.27,0,0,1,.15-0.08,1.89,1.89,0,0,1,.36.1q0,1.33.13,4t0.13,4.26q0,1.61.13,3.07l-0.11.19c0-.12-0.19-0.17-0.52-0.17q-0.11-3.78-.11-4.56l0-.07,0.06-.15a4.24,4.24,0,0,0-.06-0.63l-0.27-.07a1.07,1.07,0,0,1-.34.05L102.49,67l-0.17.07,0,2.14,0,0.07,0.12,2.84c0,0.29-.09.44-0.28,0.44s-0.38-.34-0.38-1V68.44a12.42,12.42,0,0,0-.06-1.66,4.06,4.06,0,0,0,.08-1.13l-0.15-4a0.34,0.34,0,0,1,.09-0.22,0.26,0.26,0,0,1,.2-0.1q0.34,0,.35,1l0,4.15q0,0.2,1.36.19a0.73,0.73,0,0,0,.47-0.12,1,1,0,0,0,.14-0.67q0-.55-0.13-2.11T104,61.43C104,61.36,104,61.32,104,61.32Zm-0.22,5.12,0,0h0v0Z" transform="translate(-31.79 -10.99)"/><path class="cls-1" d="M109.06,69.94l-0.45,0a1.37,1.37,0,0,0-.53-0.08,1.34,1.34,0,0,0-.31,0,0.09,0.09,0,0,0,0,.06V70l0,0.34a8.45,8.45,0,0,1-.12,1q-0.19,1.19-.45,1.2a0.38,0.38,0,0,1-.23-0.08,0.26,0.26,0,0,1-.12-0.2,14.67,14.67,0,0,0,.39-1.95l0.24-1.62c0-.21.09-0.65,0.17-1.3l0.17-1.28q0-.31.23-1.34c0.12-.68.2-1.13,0.22-1.34s0-.5.08-0.86a7.89,7.89,0,0,1,.18-1.48h0.23a0.41,0.41,0,0,0,.3-0.11,0.36,0.36,0,0,1,.21.06,0.22,0.22,0,0,1,.11.18q0,0.81.31,3.14t0.42,3q0.14,0.68.32,1.33a4.81,4.81,0,0,1,.19,1l-0.08.23a6.7,6.7,0,0,0,.18,1.12,6.56,6.56,0,0,1,.17,1,0.41,0.41,0,0,1-.12.38,0.59,0.59,0,0,1-.43-0.09,0.52,0.52,0,0,1-.09-0.32c0-.15,0-0.33,0-0.54s-0.05-.38-0.07-0.51l-0.12-.6-0.1-.52A3.06,3.06,0,0,0,109.06,69.94Zm-1.22-.8a0.44,0.44,0,0,0,.42.28,5.09,5.09,0,0,0,1.38.13h0.17a2.46,2.46,0,0,1-.13-0.76V68.39a26,26,0,0,0-.36-3.06,29.43,29.43,0,0,1-.37-3L108,67.8A8.83,8.83,0,0,0,107.83,69.14Z" transform="translate(-31.79 -10.99)"/><path class="cls-1" d="M119.38,68.51l0.09,1.78a6.93,6.93,0,0,0,.29,1.75,0.57,0.57,0,0,1,0,.53,0.31,0.31,0,0,1-.26.21q-0.34,0-.41-1.06-0.24-3.54-.35-4.31t-0.2-1.25a6.37,6.37,0,0,1-.11-0.73l-0.08-2.11a3.16,3.16,0,0,0-.12-0.8q-0.31.29-1.55,7.29a1.8,1.8,0,0,0,0,.25c0,0.13,0,.25,0,0.36a3.29,3.29,0,0,1-.06.34,0.41,0.41,0,0,1-.32.41,0.48,0.48,0,0,1-.4-0.11,0.65,0.65,0,0,1-.14-0.41,28.81,28.81,0,0,0-1.16-4.15,16.67,16.67,0,0,0-1.44-3.72q0,0.91,0,2.8,0,3.93.13,5.27t0.12,1.56a0.33,0.33,0,0,1-.34.25,0.35,0.35,0,0,1-.18-0.08,0.24,0.24,0,0,1-.13-0.14q-0.12-1.79-.1-5.37t-0.1-5.37l-0.12-.32c0-.17.13-0.27,0.44-0.29a0.32,0.32,0,0,1,.35.24,2,2,0,0,1,.1.42,4,4,0,0,0,.1.49,6.69,6.69,0,0,0,.51,1.11,10.31,10.31,0,0,1,.55,1.14l0.27,0.74q0.34,0.95.46,1.43l0.25,0.43q0.07,0.28.25,0.82a9.19,9.19,0,0,1,.42,1.81,27.17,27.17,0,0,0,.83-3.58q0.65-3.27.7-3.7c0-.29.06-0.5,0.07-0.65s0-.26,0-0.35,0-.19.07-0.32a0.44,0.44,0,0,1,.39-0.38,0.54,0.54,0,0,1,.27.08,0.27,0.27,0,0,1,.17.2Q119.13,68.15,119.38,68.51Zm-1.2-6.08h0l0,0h0v0Z" transform="translate(-31.79 -10.99)"/><path class="cls-1" d="M122,68.34l0.48,3.28a0.28,0.28,0,0,1-.29.34L122,71.85a13.57,13.57,0,0,1-.44-2.42l-0.25-3.15a1.07,1.07,0,0,1-.15-0.38,4,4,0,0,0,0-1.58,24.52,24.52,0,0,0-.43-3.27,0.73,0.73,0,0,1,.2-0.45l0.74-.08a1.25,1.25,0,0,1,.57.13,3.32,3.32,0,0,1,.59.31,3,3,0,0,1,.63,2,6.64,6.64,0,0,1,.05,1.74,3.57,3.57,0,0,1-.21.55,1.25,1.25,0,0,1-.32.41,4.11,4.11,0,0,1-1.15.68Zm-0.71-6.79L121.66,64l0.1,1.6,0.12,0.15q1.24-.13,1-2.73l0-.45c0-.18,0-0.33-0.06-0.46a2.49,2.49,0,0,0-.12-0.41,1.07,1.07,0,0,0-.21-0.35,0.93,0.93,0,0,0-.82-0.26,0.34,0.34,0,0,0-.29.14A0.63,0.63,0,0,0,121.33,61.56Z" transform="translate(-31.79 -10.99)"/><path class="cls-1" d="M128.11,68.4l-0.44.07a1.36,1.36,0,0,0-.54,0,1.29,1.29,0,0,0-.31.06,0.09,0.09,0,0,0,0,.06,0.21,0.21,0,0,1,0,.06V69a8.48,8.48,0,0,1,0,1q-0.08,1.21-.33,1.24a0.38,0.38,0,0,1-.23-0.06,0.26,0.26,0,0,1-.14-0.18,14.51,14.51,0,0,0,.2-2q0.07-1.31.08-1.64t0-1.31c0-.66,0-1.09,0-1.29s0-.66.1-1.35,0.09-1.15.09-1.36,0-.5,0-0.86a8,8,0,0,1,0-1.49h0.23a0.42,0.42,0,0,0,.29-0.14,0.35,0.35,0,0,1,.21,0,0.22,0.22,0,0,1,.12.17q0.1,0.81.61,3.09t0.71,3q0.21,0.66.45,1.3a4.72,4.72,0,0,1,.28,1l-0.05.24a6.6,6.6,0,0,0,.28,1.1,6.53,6.53,0,0,1,.27,1,0.41,0.41,0,0,1-.08.39,0.58,0.58,0,0,1-.44,0,0.51,0.51,0,0,1-.12-0.31c0-.15-0.05-0.32-0.1-0.53s-0.09-.37-0.12-0.5L129,68.9l-0.15-.51A3.11,3.11,0,0,0,128.11,68.4Zm-1.29-.68a0.45,0.45,0,0,0,.44.24,5.09,5.09,0,0,0,1.39,0l0.17,0a2.48,2.48,0,0,1-.21-0.74l0-.39a25.94,25.94,0,0,0-.65-3,29.69,29.69,0,0,1-.66-2.95q-0.32,4.47-.4,5.52A9.06,9.06,0,0,0,126.81,67.72Z" transform="translate(-31.79 -10.99)"/><path class="cls-1" d="M135.21,66.5l0.48,2.56a2.51,2.51,0,0,1-1.57,1.14,1.81,1.81,0,0,1-1.54-.22,5.2,5.2,0,0,1-.89-2,23.25,23.25,0,0,1-.58-2.35Q131,64.88,130.93,64t-0.13-1.65a8.1,8.1,0,0,1,0-1.33A1.92,1.92,0,0,1,132.39,59q0.52-.08.55,0.16a0.21,0.21,0,0,1-.08.2,0.42,0.42,0,0,1-.21.11l-0.33,0a1,1,0,0,0-.77.86,5.69,5.69,0,0,0-.19,1.55c0,0.46,0,.83,0,1.1s0,0.58.09,0.93q0.1,0.78.21,1.46a9.41,9.41,0,0,0,.22,1.07,1.58,1.58,0,0,1,.28.64c0.08,0.3.15,0.61,0.22,0.92a6,6,0,0,0,.28.91,1.35,1.35,0,0,0,.56.68,1.38,1.38,0,0,0,1,.14q1-.16.58-2.84l-0.2-1.23a0.82,0.82,0,0,0-.62-0.08l-0.32.07c-0.27,0-.41,0-0.43-0.13s0.09-.31.36-0.35q1.55-.25,1.6.09V66.5Z" transform="translate(-31.79 -10.99)"/><path class="cls-1" d="M140.58,58.38L140.47,58q-0.07-.35.17-0.4a0.31,0.31,0,0,1,.29.1,0.59,0.59,0,0,1,.17.31l0.22,1.12-0.06.16q0.26,1.3.82,5.08a25.57,25.57,0,0,1,.46,4.16l-0.23.11a1.27,1.27,0,0,1-.27.11,0.18,0.18,0,0,1-.17-0.08,0.93,0.93,0,0,1-.16-0.27,0.93,0.93,0,0,0-.12-0.22V68.08a8.4,8.4,0,0,0-.75-1.5q-0.51-.83-0.67-1.12a12.71,12.71,0,0,1-.69-1.16q-2.42-4.35-2.88-4.65a4.86,4.86,0,0,0,.1,1.2l0.29,1.3L137.13,63c0,0.13.12,0.51,0.3,1.15h0a19.42,19.42,0,0,0,.72,3l0.3,1.5a0.61,0.61,0,0,1,.12.28,0.32,0.32,0,0,1-.23.45q-0.35.07-.53-0.83l-0.15-1.1-1.05-4.78-0.48-3L136,59.44a2.13,2.13,0,0,1,0-.3c0-.05,0-0.11,0-0.18a0.62,0.62,0,0,1,0-.17l0-.14a0.66,0.66,0,0,1,.12-0.27l0.06,0,0.15-.07a0.34,0.34,0,0,1,.28.22l0,0.09,0,0.08a22.88,22.88,0,0,0,1.85,3.08q1.33,1.94,1.65,2.51t0.6,1.21a8.29,8.29,0,0,0,1.18,2l0-.05A91.24,91.24,0,0,0,140.58,58.38Zm1.66,10.24h0Z" transform="translate(-31.79 -10.99)"/><path class="cls-1" d="M145.17,67.82l-0.08-.42L145,67.35a2,2,0,0,0,0-.71l-0.59-2.16-1.06-5-0.53-2a0.43,0.43,0,0,1,.37-0.58,0.32,0.32,0,0,1,.29,0l0.49,0q1-.13,1.14.17a0.53,0.53,0,0,1-.24.39,5.75,5.75,0,0,0-1.42,0l-0.06.12c0,0.15.11,0.39,0.18,0.71l0.54,2.58c0.07,0.31.19,0.44,0.34,0.41l0.55-.16c0.42-.1.66,0,0.72,0.15a0.55,0.55,0,0,1,0,.32,0.34,0.34,0,0,1-.27.2,0.4,0.4,0,0,1-.35-0.05l-0.56,0-0.07,0-0.06.1v0q0.13,0.42.34,1.3l0.52,2.36a3.72,3.72,0,0,0,.65,1.77,0.89,0.89,0,0,0,.56,0l0.61-.18q0.48-.11.54,0.1t-0.65.47l-1.37.32A0.32,0.32,0,0,1,145.17,67.82Z" transform="translate(-31.79 -10.99)"/></svg>